<svg id="Layer_1" data-name="Layer 1" xmlns="http://www.w3.org/2000/svg" width="299.11499" height="68.017" viewBox="0 0 299.11499 68.017"><defs><style>.cls-1{fill:#8b7100;fill-opacity:0;}.cls-10,.cls-11,.cls-18,.cls-19,.cls-2,.cls-20,.cls-3,.cls-4,.cls-5,.cls-6,.cls-7,.cls-9{fill:none;}.cls-10,.cls-11,.cls-15,.cls-16,.cls-18,.cls-2,.cls-5,.cls-9{stroke:#fff;}.cls-10,.cls-13,.cls-18,.cls-19,.cls-2,.cls-20,.cls-3,.cls-4,.cls-5,.cls-6,.cls-7,.cls-9{stroke-width:1.5px;}.cls-17,.cls-19,.cls-3,.cls-6{stroke:#41c363;}.cls-13,.cls-14,.cls-20,.cls-4,.cls-7{stroke:#000;}.cls-13,.cls-14,.cls-15,.cls-16,.cls-17,.cls-5,.cls-6,.cls-7,.cls-9{stroke-miterlimit:10;}.cls-13,.cls-15,.cls-8{fill:#fff;}.cls-11,.cls-18,.cls-19,.cls-20,.cls-9{stroke-linecap:round;}.cls-10{stroke-miterlimit:1;}.cls-11,.cls-18,.cls-19,.cls-20{stroke-linejoin:round;}.cls-11{stroke-width:1.3px;}.cls-12,.cls-17{fill:#41c363;}.cls-14,.cls-15,.cls-16,.cls-17{stroke-width:0.6px;}</style></defs><title>nav-icons</title><rect class="cls-1" width="34" height="34"/><rect class="cls-1" x="34" width="34" height="34"/><rect class="cls-1" x="101.984" width="34.00001" height="34"/><rect class="cls-1" x="135.98399" width="34" height="34"/><rect class="cls-1" x="169.965" width="34" height="34"/><rect class="cls-1" x="203.981" width="33.99901" height="34"/><rect class="cls-1" x="238.00101" width="33.99802" height="34"/><path class="cls-2" d="M9.54,23.587q-2.4795.009-4.958.016c-.689.005-.832-.138-.888-.82a12.23025,12.23025,0,0,1,1.173-6.488,12.45676,12.45676,0,0,1,9.382-7.178,12.719,12.719,0,0,1,13.75,6.936,12.35078,12.35078,0,0,1,1.293,6.634c-.008.104-.008.209-.016.314a.59653.59653,0,0,1-.597.59609l-.01-.00009c-1.805.001-3.043-.004-4.849-.014"/><path class="cls-2" d="M16.983,26.053a3.1996,3.1996,0,0,1-2.99-2.008,22.38242,22.38242,0,0,1-1.223-4.403c-.202-1.049-.364-2.107-.528-3.162a1.09958,1.09958,0,0,1,.043-.503.575.575,0,0,1,.714-.321,1.32209,1.32209,0,0,1,.355.181,44.81511,44.81511,0,0,1,5.233,4.362c.276.275.535.573.797.867a2.951,2.951,0,0,1-1.504,4.829C17.588,25.975,17.283,26.001,16.983,26.053Z"/><path class="cls-3" d="M21.661,9.969a12.931,12.931,0,0,1,6.338,6.084,12.35076,12.35076,0,0,1,1.293,6.634c-.007.104-.007.209-.016.314a.59654.59654,0,0,1-.597.59609l-.01-.00009c-1.804.002-3.043-.004-4.849-.014"/><rect class="cls-1" y="33.994" width="34" height="34.006"/><path class="cls-2" d="M9.54,57.586q-2.4795.009-4.958.016c-.689.005-.832-.138-.888-.82a12.23557,12.23557,0,0,1,1.173-6.489,12.46014,12.46014,0,0,1,9.382-7.179,12.71774,12.71774,0,0,1,13.75,6.938,12.35424,12.35424,0,0,1,1.293,6.635c-.008.104-.008.209-.016.313a.59674.59674,0,0,1-.59641.59708L28.669,57.597c-1.805.001-3.043-.004-4.849-.014"/><path class="cls-2" d="M16.983,60.052a3.1996,3.1996,0,0,1-2.99-2.008A22.39153,22.39153,0,0,1,12.77,53.64c-.202-1.049-.364-2.106-.528-3.162a1.09821,1.09821,0,0,1,.043-.503.575.575,0,0,1,.714-.321,1.32209,1.32209,0,0,1,.355.181,44.92423,44.92423,0,0,1,5.233,4.363c.276.275.535.573.797.867a2.951,2.951,0,0,1-1.504,4.829C17.588,59.973,17.283,60,16.983,60.052Z"/><path class="cls-4" d="M21.661,43.965a12.92878,12.92878,0,0,1,6.338,6.085,12.35433,12.35433,0,0,1,1.293,6.635c-.007.104-.007.209-.016.313a.59677.59677,0,0,1-.59642.59709L28.669,57.595c-1.804.002-3.043-.004-4.849-.014"/><line class="cls-5" x1="118.069" y1="26.808" x2="118.069" y2="29.397"/><line class="cls-5" x1="115.819" y1="26.851" x2="125.025" y2="26.851"/><path class="cls-5" d="M128.774,29.167a2.572,2.572,0,1,1-1.135-4.881h.056"/><line class="cls-5" x1="122.069" y1="26.808" x2="122.069" y2="31.397"/><path class="cls-6" d="M127.639,24.284a2.57209,2.57209,0,0,1,1.098,4.898"/><path class="cls-5" d="M122.01,24.349c0-.195-.01-.388-.027-.579a6.15965,6.15965,0,0,0-6.131-5.581"/><circle class="cls-5" cx="115.854" cy="8.992" r="6.158"/><path class="cls-6" d="M115.854,18.188a6.16072,6.16072,0,0,0-6.16,6.16"/><path class="cls-5" d="M109.695,24.349v6.43h5.083"/><path class="cls-5" d="M122.01,24.349"/><path class="cls-5" d="M111.928,30.777"/><rect class="cls-1" x="101.984" y="34.016" width="34.00001" height="34.001"/><line class="cls-5" x1="118.069" y1="60.824" x2="118.069" y2="63.414"/><line class="cls-5" x1="115.819" y1="60.867" x2="125.025" y2="60.867"/><path class="cls-5" d="M128.774,63.183a2.57162,2.57162,0,1,1-1.135-4.88h.056"/><line class="cls-5" x1="122.069" y1="60.824" x2="122.069" y2="65.414"/><path class="cls-7" d="M127.639,58.3a2.57209,2.57209,0,0,1,1.098,4.898"/><path class="cls-5" d="M122.01,58.365c0-.195-.01-.389-.027-.579a6.15965,6.15965,0,0,0-6.131-5.581"/><circle class="cls-5" cx="115.854" cy="43.009" r="6.158"/><path class="cls-7" d="M115.854,52.205a6.16074,6.16074,0,0,0-6.16,6.16"/><path class="cls-5" d="M109.695,58.365v6.43h5.083"/><path class="cls-5" d="M122.01,58.365"/><path class="cls-5" d="M111.928,64.794"/><path class="cls-5" d="M56.644,23.17a6.159,6.159,0,0,0-6.158-6.16h0"/><circle class="cls-5" cx="50.488" cy="7.814" r="6.158"/><path class="cls-6" d="M50.488,17.01a6.16072,6.16072,0,0,0-6.16,6.16"/><path class="cls-5" d="M44.329,23.17V29.6H54.412"/><path class="cls-5" d="M46.562,29.599H56.645v-6.43"/><rect class="cls-1" x="34" y="34.016" width="34" height="34.001"/><path class="cls-5" d="M56.644,57.187a6.159,6.159,0,0,0-6.158-6.16h0"/><circle class="cls-5" cx="50.488" cy="41.83" r="6.158"/><path class="cls-7" d="M50.488,51.026a6.16073,6.16073,0,0,0-6.16,6.16"/><path class="cls-5" d="M44.329,57.187v6.43H54.412"/><path class="cls-5" d="M46.562,63.615H56.645v-6.43"/><path class="cls-5" d="M147.971,23.104c-.875.397-1.645.734-2.324,1.031-3.012,1.313-4.137,1.81-4.137,3.438a2.43773,2.43773,0,0,0,2.344,2.344h8.039"/><path class="cls-5" d="M159.635,16.273a1.2599,1.2599,0,0,0,1.002.524h.645a1.27223,1.27223,0,0,0,1.271-1.27343l0-.00357V12.962a1.27244,1.27244,0,0,0-1.26988-1.275H160.639c0-4.223-3.426-8.278-7.646-8.278s-7.645,4.056-7.645,8.278h-.646a1.27137,1.27137,0,0,0-1.27,1.27273V15.521a1.269,1.269,0,0,0,1.263,1.275h.653a1.26349,1.26349,0,0,0,.938-.43c.043.055.076.109.119.161m-.016-2.452v-.092c0-4.723,2.965-7.933,6.604-7.933,3.646,0,6.607,3.21,6.607,7.933,0,4.722-2.971,9.193-6.609,9.193"/><path class="cls-5" d="M151.094,18.697c-2.238,0-3.996-1.528-4.797-2.167"/><path class="cls-8" d="M153.659,18.581a1.412,1.412,0,1,1-1.416-1.408h.006A1.40987,1.40987,0,0,1,153.659,18.581Z"/><path class="cls-6" d="M151.862,29.918H162.11a2.43731,2.43731,0,0,0,2.346-2.344c.014-1.629-1.111-2.123-4.125-3.438-.682-.297-1.449-.631-2.322-1.031l-.043-.02"/><path class="cls-6" d="M152.989,23.179c-2.412,0-4.523-1.691-5.676-4.208a11.91766,11.91766,0,0,1-.689-2.078,18.87071,18.87071,0,0,1-.238-2.908"/><rect class="cls-1" x="135.98399" width="34" height="34"/><path class="cls-5" d="M147.971,23.104c-.875.397-1.645.734-2.324,1.031-3.012,1.313-4.137,1.81-4.137,3.438a2.43773,2.43773,0,0,0,2.344,2.344h8.039"/><path class="cls-5" d="M159.635,16.273a1.2599,1.2599,0,0,0,1.002.524h.645a1.27223,1.27223,0,0,0,1.271-1.27343l0-.00357V12.962a1.27244,1.27244,0,0,0-1.26988-1.275H160.639c0-4.223-3.426-8.278-7.646-8.278s-7.645,4.056-7.645,8.278h-.646a1.27137,1.27137,0,0,0-1.27,1.27273V15.521a1.269,1.269,0,0,0,1.263,1.275h.653a1.26349,1.26349,0,0,0,.938-.43c.043.055.076.109.119.161m-.016-2.452v-.092c0-4.723,2.965-7.933,6.604-7.933,3.646,0,6.607,3.21,6.607,7.933,0,4.722-2.971,9.193-6.609,9.193"/><path class="cls-5" d="M151.094,18.697c-2.238,0-3.996-1.528-4.797-2.167"/><path class="cls-8" d="M153.659,18.581a1.412,1.412,0,1,1-1.416-1.408h.006A1.40987,1.40987,0,0,1,153.659,18.581Z"/><path class="cls-6" d="M151.862,29.918H162.11a2.43731,2.43731,0,0,0,2.346-2.344c.014-1.629-1.111-2.123-4.125-3.438-.682-.297-1.449-.631-2.322-1.031l-.043-.02"/><path class="cls-6" d="M152.989,23.179c-2.412,0-4.523-1.691-5.676-4.208a11.91766,11.91766,0,0,1-.689-2.078,18.87071,18.87071,0,0,1-.238-2.908"/><rect class="cls-1" x="135.98399" y="34.016" width="34" height="34.001"/><path class="cls-5" d="M147.971,57.121c-.875.397-1.645.734-2.324,1.031-3.012,1.313-4.137,1.81-4.137,3.438a2.43773,2.43773,0,0,0,2.344,2.344h8.039"/><path class="cls-5" d="M159.635,50.29a1.259,1.259,0,0,0,1.002.523h.645a1.27223,1.27223,0,0,0,1.271-1.27343l0-.00357V46.978a1.27243,1.27243,0,0,0-1.26988-1.275H160.639c0-4.223-3.426-8.277-7.646-8.277s-7.645,4.056-7.645,8.277h-.646a1.27136,1.27136,0,0,0-1.27,1.27273V49.537a1.269,1.269,0,0,0,1.263,1.275h.653a1.26353,1.26353,0,0,0,.938-.43c.043.055.076.108.119.161m-.016-2.451V48c0-4.724,2.965-7.934,6.604-7.934,3.646,0,6.607,3.21,6.607,7.934,0,4.722-2.971,9.193-6.609,9.193"/><path class="cls-5" d="M151.094,52.714c-2.238,0-3.996-1.528-4.797-2.167"/><path class="cls-8" d="M153.659,52.598a1.412,1.412,0,1,1-1.416-1.408h.006A1.40987,1.40987,0,0,1,153.659,52.598Z"/><path class="cls-7" d="M151.862,63.935H162.11a2.4373,2.4373,0,0,0,2.346-2.344c.014-1.629-1.111-2.123-4.125-3.438-.682-.297-1.449-.631-2.322-1.031l-.043-.02"/><path class="cls-7" d="M152.989,57.195c-2.412,0-4.523-1.691-5.676-4.209a11.889,11.889,0,0,1-.689-2.078,18.85774,18.85774,0,0,1-.238-2.907"/><path class="cls-9" d="M263.55,14.053q-3.597.009-7.198.004H249.12"/><path class="cls-6" d="M259.173,21.295a2.67484,2.67484,0,0,1,2.64649-2.70286l.02353-.00014a2.73185,2.73185,0,0,1,2.72,2.691,2.78388,2.78388,0,0,1-2.69,2.729A2.73567,2.73567,0,0,1,259.173,21.295Z"/><path class="cls-9" d="M255.76,9.469c-2.398.006,2.994.004.592.004H249.12"/><path class="cls-9" d="M254.831,18.979c-2.397.006,2.994.004.592.004-2.408,0-3.893.002-6.303,0"/><path class="cls-9" d="M252.59,23.735c-2.398.006,2.994.004.592.004-2.409,0-1.652.002-4.063,0"/><path class="cls-5" d="M245.457,19.385v7.89a1.37152,1.37152,0,0,0,1.055,1.522,2.12771,2.12771,0,0,0,.487.034c2.4.003,4.8,0,7.202.005"/><path class="cls-5" d="M267.555,14.864c-.016-3.099-.007-6.198-.013-9.295a1.35987,1.35987,0,0,0-1.031-1.446,2.10562,2.10562,0,0,0-.516-.042q-5.6295-.0015-11.262-.001"/><path class="cls-6" d="M254.815,4.081c-6.338-.001-1.496-.002-7.836,0a1.358,1.358,0,0,0-1.522,1.508c-.002,7.229,0,6.63,0,13.857"/><path class="cls-5" d="M253.718,28.836c2.402-.005,9.895-.002,12.295-.005a2.12715,2.12715,0,0,0,.487-.034,1.37149,1.37149,0,0,0,1.055-1.522V13.77"/><rect class="cls-1" x="238.00101" y="34.016" width="33.99802" height="34.001"/><path class="cls-9" d="M263.55,48.069q-3.597.009-7.198.004H249.12"/><path class="cls-7" d="M259.173,55.312a2.674,2.674,0,0,1,2.64585-2.70185L261.843,52.61a2.731,2.731,0,0,1,2.72,2.69,2.78321,2.78321,0,0,1-2.69,2.729A2.73567,2.73567,0,0,1,259.173,55.312Z"/><path class="cls-9" d="M255.76,43.485c-2.398.006,2.994.004.592.004H249.12"/><path class="cls-9" d="M254.831,52.995c-2.397.006,2.994.004.592.004-2.408,0-3.893.002-6.303,0"/><path class="cls-9" d="M252.59,57.751c-2.398.007,2.994.005.592.005-2.409,0-1.652.002-4.063,0"/><path class="cls-5" d="M245.457,53.401v7.89a1.37023,1.37023,0,0,0,1.055,1.522,2.12771,2.12771,0,0,0,.487.034c2.4.003,4.8,0,7.202.005"/><path class="cls-5" d="M267.555,48.88c-.016-3.099-.007-6.197-.013-9.295a1.35987,1.35987,0,0,0-1.031-1.446,2.10521,2.10521,0,0,0-.516-.041q-5.6295-.0015-11.262-.001"/><path class="cls-7" d="M254.815,38.098c-6.338-.001-1.496-.002-7.836,0a1.358,1.358,0,0,0-1.522,1.508c-.002,7.229,0,6.63,0,13.857"/><path class="cls-5" d="M253.718,62.853c2.402-.005,9.895-.002,12.295-.005a2.12771,2.12771,0,0,0,.487-.034,1.37149,1.37149,0,0,0,1.055-1.522V47.787"/><path class="cls-5" d="M210.312,18.146v9.059a1.22564,1.22564,0,0,0,.943,1.361,1.91188,1.91188,0,0,0,.436.03c2.146.003,7.135,0,9.283.005"/><path class="cls-5" d="M230.765,15.878c-.014-2.771-.006-7.317-.012-10.088a1.21445,1.21445,0,0,0-.922-1.293,1.86234,1.86234,0,0,0-.461-.037q-5.034-.0015-10.072-.001"/><path class="cls-6" d="M219.371,4.46c-5.668-.001-2.027-.002-7.697,0a1.21482,1.21482,0,0,0-1.361,1.349c-.002,6.465,0,5.93,0,12.394"/><line class="cls-10" x1="213.742" y1="23.579" x2="220.974" y2="23.579"/><line class="cls-10" x1="213.742" y1="20.26" x2="220.974" y2="20.26"/><line class="cls-10" x1="213.742" y1="16.892" x2="220.974" y2="16.892"/><polygon class="cls-11" points="224.578 12.656 224.578 12.656 214.164 12.656 214.164 12.656 214.164 8.953 214.164 8.953 224.578 8.953 224.578 8.953 224.578 12.656"/><path class="cls-6" d="M224.156,16.892a14.34036,14.34036,0,0,1,12.266,12.247"/><path class="cls-5" d="M224.147,21.407a9.84,9.84,0,0,1,7.733,7.733"/><path class="cls-12" d="M225.578,25.999a1.28808,1.28808,0,1,1-1.30728,1.26859l.00028-.01359A1.28544,1.28544,0,0,1,225.578,25.999Z"/><rect class="cls-1" x="203.981" y="34.016" width="33.99901" height="34.001"/><path class="cls-5" d="M210.312,52.163v9.059a1.22564,1.22564,0,0,0,.943,1.361,1.91245,1.91245,0,0,0,.436.03c2.146.003,7.135,0,9.283.005"/><path class="cls-5" d="M230.765,49.895c-.014-2.771-.006-7.317-.012-10.088a1.21445,1.21445,0,0,0-.922-1.293,1.86234,1.86234,0,0,0-.461-.037q-5.034-.0015-10.072-.001"/><line class="cls-10" x1="213.742" y1="57.596" x2="220.974" y2="57.596"/><line class="cls-10" x1="213.742" y1="54.276" x2="220.974" y2="54.276"/><line class="cls-10" x1="213.742" y1="50.908" x2="220.974" y2="50.908"/><polygon class="cls-11" points="224.578 46.673 224.578 46.673 214.164 46.673 214.164 46.673 214.164 42.97 214.164 42.97 224.578 42.97 224.578 42.97 224.578 46.673"/><path class="cls-13" d="M224.156,50.908a14.34035,14.34035,0,0,1,12.266,12.246"/><path class="cls-5" d="M224.147,55.424a9.83892,9.83892,0,0,1,7.733,7.732"/><path d="M225.578,60.015a1.28808,1.28808,0,1,1-1.30728,1.26858L224.271,61.27A1.28544,1.28544,0,0,1,225.578,60.015Z"/><path class="cls-7" d="M219.371,38.477c-5.668-.001-2.027-.002-7.697,0a1.21482,1.21482,0,0,0-1.361,1.349c-.002,6.465,0,5.93,0,12.394"/><rect class="cls-5" x="178.856" y="8.453" width="15.862" height="15.864"/><rect class="cls-5" x="183.342" y="12.939" width="6.89" height="6.891"/><polyline class="cls-5" points="181.686 7.656 181.686 3.656 179.257 3.656"/><polyline class="cls-5" points="191.769 7.656 191.769 3.656 194.198 3.656"/><line class="cls-5" x1="188.642" y1="7.656" x2="188.642" y2="3.656"/><line class="cls-5" x1="185.179" y1="7.656" x2="185.179" y2="3.656"/><polyline class="cls-5" points="181.686 24.966 181.686 28.966 179.257 28.966"/><polyline class="cls-5" points="191.769 24.966 191.769 28.966 194.198 28.966"/><line class="cls-5" x1="188.642" y1="24.966" x2="188.642" y2="28.966"/><line class="cls-5" x1="185.179" y1="24.966" x2="185.179" y2="28.966"/><polyline class="cls-5" points="195.452 21.701 199.452 21.701 199.452 24.129"/><polyline class="cls-5" points="195.452 11.617 199.452 11.617 199.452 9.189"/><line class="cls-5" x1="195.452" y1="14.746" x2="199.452" y2="14.746"/><line class="cls-5" x1="195.452" y1="18.208" x2="199.452" y2="18.208"/><polyline class="cls-5" points="178.109 21.701 174.109 21.701 174.109 24.129"/><polyline class="cls-5" points="178.109 11.617 174.109 11.617 174.109 9.189"/><line class="cls-5" x1="178.10899" y1="14.746" x2="174.10899" y2="14.746"/><line class="cls-5" x1="178.10899" y1="18.208" x2="174.10899" y2="18.208"/><polyline class="cls-6" points="178.856 16.709 178.856 8.453 186.787 8.453"/><polyline class="cls-6" points="186.461 24.316 194.718 24.316 194.718 16.385"/><rect class="cls-1" x="169.965" y="33.999" width="34" height="34.001"/><rect class="cls-5" x="178.856" y="42.452" width="15.862" height="15.864"/><rect class="cls-5" x="183.342" y="46.938" width="6.89" height="6.892"/><polyline class="cls-5" points="181.686 41.656 181.686 37.656 179.257 37.656"/><polyline class="cls-5" points="191.769 41.656 191.769 37.656 194.198 37.656"/><line class="cls-5" x1="188.642" y1="41.656" x2="188.642" y2="37.656"/><line class="cls-5" x1="185.179" y1="41.656" x2="185.179" y2="37.656"/><polyline class="cls-5" points="181.686 58.966 181.686 62.966 179.257 62.966"/><polyline class="cls-5" points="191.769 58.966 191.769 62.966 194.198 62.966"/><line class="cls-5" x1="188.642" y1="58.966" x2="188.642" y2="62.966"/><line class="cls-5" x1="185.179" y1="58.966" x2="185.179" y2="62.966"/><polyline class="cls-5" points="195.452 55.701 199.452 55.701 199.452 58.129"/><polyline class="cls-5" points="195.452 45.617 199.452 45.617 199.452 43.189"/><line class="cls-5" x1="195.452" y1="48.745" x2="199.452" y2="48.745"/><line class="cls-5" x1="195.452" y1="52.208" x2="199.452" y2="52.208"/><polyline class="cls-5" points="178.109 55.701 174.109 55.701 174.109 58.129"/><polyline class="cls-5" points="178.109 45.617 174.109 45.617 174.109 43.189"/><line class="cls-5" x1="178.10899" y1="48.745" x2="174.10899" y2="48.745"/><line class="cls-5" x1="178.10899" y1="52.208" x2="174.10899" y2="52.208"/><polyline class="cls-7" points="178.856 50.709 178.856 42.452 186.787 42.452"/><polyline class="cls-7" points="186.461 58.316 194.718 58.316 194.718 50.385"/><path class="cls-14" d="M86.5684,42.53955c-.0288-.20654-.0601-.39551-.0806-.5874a.16444.16444,0,0,1,.0371-.12061,2.91715,2.91715,0,0,1,2.34471-.92138,2.96437,2.96437,0,0,1,2.4922,1.541c.0445.07373.0786.07031.1504.04738a3.37989,3.37989,0,1,1-.9263,5.92036c-.0307-.0224-.06391-.0449-.0981-.07081a2.62009,2.62009,0,0,1-4.2759-.8925,6.01074,6.01074,0,0,1-.8423.2568,2.893,2.893,0,0,1-2.539-.70069,2.21351,2.21351,0,0,1-.63379-1.07713c.1841.041.3589.07714.5307.12012.0215.0039.04149.03369.0528.05615a2.01141,2.01141,0,0,0,1.4834,1.101,2.36978,2.36978,0,0,0,2.0542-.45409c.0532-.043.1113-.08055.186-.1328a2.13291,2.13291,0,0,0,1.6074,1.92039,2.09565,2.09565,0,0,0,2.3291-.9038,2.89559,2.89559,0,0,0,2.5342.9248,2.77353,2.77353,0,0,0,1.7236-.8857,2.88285,2.88285,0,0,0,.2779-3.61624,2.91513,2.91513,0,0,0-3.815-.88818,2.54,2.54,0,0,0-2.101-1.75439A2.512,2.512,0,0,0,86.5684,42.53955Z"/><path class="cls-14" d="M96.1299,65.6045h1.3862v.5498H71v-.5508h1.39258q.583-9.1743,1.16649-18.333H76.5127q.58374,9.1494,1.1665,18.3203h1.772q-.3384-5.43452-.67775-10.8701H96.1299Zm-.5645-.0107V55.2783H79.3687q.323,5.16795.6435,10.3155Zm-18.44479-.003q-.56617-8.88572-1.13135-17.7627H74.084q-.56543,8.8902-1.12939,17.7627Z"/><path d="M85.3052,58.3252v2.2676H83.043V58.3252Z"/><path d="M92.2441,60.5928H89.9834V58.3232h2.26069Z"/><path class="cls-8" d="M86.5093,58.3193h2.2685v2.2764H86.5093Z"/><path class="cls-15" d="M81.188,43.46631a2.62745,2.62745,0,0,1-4.28907-.92139,2.76432,2.76432,0,0,1-2.34327.13916A2.68673,2.68673,0,0,1,73.26417,41.645a2.78336,2.78336,0,0,1,3.457-4.084c.15235-.19727.28955-.4043.45556-.5835a3.05075,3.05075,0,0,1,4.30175-.17383,2.85044,2.85044,0,0,1,.5772.72559c.0444.083.0883.09326.1757.06543a3.38589,3.38589,0,1,1-.96971,5.92138A.60673.60673,0,0,0,81.188,43.46631Zm-4.22754-5.18115a2.34837,2.34837,0,0,0-1.688-.4375,2.22,2.22,0,0,0-1.50537.87744,2.27336,2.27336,0,0,0,1.23877,3.57763A2.35658,2.35658,0,0,0,77.21,41.708a2.13951,2.13951,0,0,0,1.60352,1.93506,2.09488,2.09488,0,0,0,2.33152-.90674,3.08029,3.08029,0,0,0,1.2305.80224,2.88285,2.88285,0,0,0,3.5469-3.92529,2.81056,2.81056,0,0,0-1.2989-1.36523,2.87305,2.87305,0,0,0-2.7553.04443,2.58341,2.58341,0,0,0-4.90775-.00732Z"/><path class="cls-16" d="M86.5684,6.53955c-.0293-.20654-.0606-.39551-.0801-.5874a.164.164,0,0,1,.0371-.12061,2.91507,2.91507,0,0,1,2.34369-.92138,2.96307,2.96307,0,0,1,2.49221,1.541c.045.07373.0791.07031.1504.04737a3.37991,3.37991,0,1,1-.9258,5.92036c-.0312-.0224-.0644-.0449-.0976-.0708a2.62049,2.62049,0,0,1-4.2764-.8925,6.01727,6.01727,0,0,1-.8428.2568,2.89345,2.89345,0,0,1-2.539-.7007,2.20882,2.20882,0,0,1-.6328-1.07713c.18361.041.3584.07715.5302.12012.0215.0039.042.03369.0528.05615a2.01236,2.01236,0,0,0,1.4834,1.10106,2.37091,2.37091,0,0,0,2.05471-.45409c.05269-.043.11129-.08056.1855-.13281a2.13293,2.13293,0,0,0,1.6074,1.9204,2.09594,2.09594,0,0,0,2.3291-.9038,2.89562,2.89562,0,0,0,2.5342.9248,2.77363,2.77363,0,0,0,1.7236-.8857,2.88422,2.88422,0,0,0,.2784-3.61625,2.91593,2.91593,0,0,0-3.8155-.88818,2.54056,2.54056,0,0,0-2.1006-1.75439A2.512,2.512,0,0,0,86.5684,6.53955Z"/><path class="cls-16" d="M96.1299,29.6045h1.38569v.5498H71v-.5508h1.3926q.58305-9.1743,1.166-18.333h2.9541q.58442,9.1494,1.167,18.3203h1.7715q-.3384-5.4345-.6778-10.8701H96.1299Zm-.5645-.0107V19.2783H79.3691q.32237,5.16795.6426,10.3155Zm-18.4443-.003q-.56685-8.8857-1.1318-17.7627H74.084q-.5655,8.8902-1.1289,17.7627Z"/><path class="cls-8" d="M85.3047,22.3252v2.2676H83.043V22.3252Z"/><path class="cls-8" d="M92.2441,24.5928H89.9834V22.3232h2.26069Z"/><path class="cls-12" d="M86.5098,22.3193h2.26751v2.2764H86.5098Z"/><path class="cls-17" d="M81.1875,9.46631a2.62761,2.62761,0,0,1-4.2891-.92139,2.763,2.763,0,0,1-2.3427.13916A2.69187,2.69187,0,0,1,73.2637,7.645a2.78366,2.78366,0,0,1,3.457-4.084c.1523-.19727.29-.4043.4561-.5835a3.05068,3.05068,0,0,1,4.3017-.17383,2.839,2.839,0,0,1,.5772.72559c.0439.083.0888.09326.1757.06543a3.38587,3.38587,0,1,1,1.7374,6.53271,3.33815,3.33815,0,0,1-2.7071-.61133A.51643.51643,0,0,0,81.1875,9.46631ZM76.9609,4.28516a2.35052,2.35052,0,0,0-1.6884-.4375,2.21886,2.21886,0,0,0-1.5049.87744,2.27246,2.27246,0,0,0,1.2383,3.57763A2.35725,2.35725,0,0,0,77.21,7.708a2.13829,2.13829,0,0,0,1.6035,1.93506,2.09417,2.09417,0,0,0,2.331-.90674,3.0908,3.0908,0,0,0,1.2305.80224,2.88285,2.88285,0,0,0,3.5469-3.92529A2.80614,2.80614,0,0,0,84.623,4.24805a2.8721,2.8721,0,0,0-2.7548.04443,2.58309,2.58309,0,0,0-4.9073-.00732Z"/><line class="cls-18" x1="287.06" y1="13.712" x2="287.06" y2="18.277"/><circle class="cls-8" cx="287.06" cy="22.012" r="1.094"/><polyline class="cls-18" points="286.229 7.137 287.06 5.647 298.365 26 280.969 26"/><polyline class="cls-19" points="281.144 26 275.75 26 287.06 5.647"/><line class="cls-18" x1="287.06" y1="48.712" x2="287.06" y2="53.277"/><circle class="cls-8" cx="287.06" cy="57.012" r="1.094"/><polyline class="cls-18" points="286.229 42.137 287.06 40.646 298.365 61 280.969 61"/><polyline class="cls-20" points="281.144 61 275.75 61 287.06 40.646"/></svg>